Coordinates
version=1
nRows=13
nColumns=40
inDegrees=yes

Units are S.I. units (second, meters, Newtons, ...)
If the header above contains a line with 'inDegrees', this indicates whether rotational values are in degrees (yes) or radians (no).

endheader
time	pelvis_tilt	pelvis_list	pelvis_rotation	pelvis_tx	pelvis_ty	pelvis_tz	hip_flexion_r	hip_adduction_r	hip_rotation_r	knee_angle_r	knee_angle_r_beta	ankle_angle_r	subtalar_angle_r	mtp_angle_r	hip_flexion_l	hip_adduction_l	hip_rotation_l	knee_angle_l	knee_angle_l_beta	ankle_angle_l	subtalar_angle_l	mtp_angle_l	lumbar_extension	lumbar_bending	lumbar_rotation	arm_flex_r	arm_add_r	arm_rot_r	elbow_flex_r	pro_sup_r	wrist_flex_r	wrist_dev_r	arm_flex_l	arm_add_l	arm_rot_l	elbow_flex_l	pro_sup_l	wrist_flex_l	wrist_dev_l
      5.24500000	     46.88269967	     -0.81179668	   -178.07876824	      0.46437392	      0.66650638	     -0.61648247	    102.50468556	    -12.04401104	     -2.00685694	     66.91464884	      1.16788094	     14.38921806	      0.00000000	      0.00000000	    101.03610283	     -8.74332728	     -0.02741973	     64.72665930	      1.12969332	     12.05283368	      0.00000000	      0.00000000	    -26.72107469	      1.85786658	      3.36010248	     66.01995994	    -10.60169749	     43.78789524	      1.08572969	     86.03647373	      0.00000000	      0.00000000	     56.17177954	     -0.61618254	     52.72617687	      0.57145727	      2.52121305	      0.00000000	      0.00000000
      5.25000000	     47.00883939	     -0.73975635	   -178.11218277	      0.46436311	      0.66816498	     -0.61643724	    102.31663456	    -12.05966075	     -2.23208990	     66.46367564	      1.16000997	     14.20072848	      0.00000000	      0.00000000	    100.91527554	     -8.76759327	     -0.03235075	     64.32920438	      1.12275642	     11.87004588	      0.00000000	      0.00000000	    -26.75735360	      1.95685101	      3.40757417	     66.10454830	    -10.60677637	     43.71908911	      1.08703102	     86.01380952	      0.00000000	      0.00000000	     56.20650466	     -0.58860190	     52.67721277	      0.57096881	      2.52213045	      0.00000000	      0.00000000
      5.25500000	     47.21965160	     -0.92784387	   -178.12870611	      0.46443076	      0.66974439	     -0.61607338	    102.30866266	    -12.07414684	     -2.15422262	     66.00300094	      1.15196968	     13.89135298	      0.00000000	      0.00000000	    100.78840105	     -8.70862703	     -0.23928636	     63.86109943	      1.11458645	     11.68127267	      0.00000000	      0.00000000	    -26.69880649	      1.82573822	      3.27389046	     66.17637913	    -10.53647516	     43.51116979	      1.08155565	     85.98906133	      0.00000000	      0.00000000	     56.49102991	     -0.48700323	     50.60052332	      0.57345315	      2.56967308	      0.00000000	      0.00000000
      5.26000000	     47.23742775	     -0.74801102	   -178.18675245	      0.46429451	      0.67154779	     -0.61618432	    101.96898695	    -12.04194644	     -2.48122463	     65.55427961	      1.14413802	     13.79414073	      0.00000000	      0.00000000	    100.57861824	     -8.74424959	     -0.09035257	     63.42923690	      1.10704903	     11.49215124	      0.00000000	      0.00000000	    -26.84702535	      2.01850016	      3.43384892	     66.25215926	    -10.60089129	     43.55220203	      1.09243754	     86.02382281	      0.00000000	      0.00000000	     56.27816363	     -0.54402889	     52.56072378	      0.56773801	      2.51596460	      0.00000000	      0.00000000
      5.26500000	     47.38752377	     -0.71339095	   -178.23979102	      0.46428414	      0.67313819	     -0.61607285	    101.82730889	    -12.01817154	     -2.64235764	     65.10800064	      1.13634898	     13.55903481	      0.00000000	      0.00000000	    100.47765145	     -8.75657899	     -0.09619837	     63.01473999	      1.09981469	     11.29353517	      0.00000000	      0.00000000	    -26.84419125	      2.08153369	      3.48412825	     66.31656801	    -10.60603859	     43.19679040	      1.09285999	     85.98366576	      0.00000000	      0.00000000	     56.44095321	     -0.44814591	     51.44604742	      0.56736977	      2.54236413	      0.00000000	      0.00000000
      5.27000000	     47.42797564	     -0.61490814	   -178.23184940	      0.46421213	      0.67494510	     -0.61587875	    101.52181212	    -12.06663800	     -2.87285188	     64.61600682	      1.12776207	     13.41148608	      0.00000000	      0.00000000	    100.25689716	     -8.71698018	     -0.07386074	     62.57537800	      1.09214638	     11.10413130	      0.00000000	      0.00000000	    -26.96422394	      2.24277543	      3.49960579	     66.41246891	    -10.60608581	     43.34692120	      1.09843325	     86.06816285	      0.00000000	      0.00000000	     56.31100794	     -0.50513332	     52.65585232	      0.56651946	      2.50294919	      0.00000000	      0.00000000
      5.27500000	     47.50344215	     -0.50311413	   -178.28852464	      0.46413362	      0.67662910	     -0.61582215	    101.27036129	    -12.04512055	     -3.11423869	     64.15713271	      1.11975320	     13.19495466	      0.00000000	      0.00000000	    100.11283619	     -8.70441630	      0.03357710	     62.17291078	      1.08512200	     10.88938412	      0.00000000	      0.00000000	    -27.03739389	      2.37718175	      3.59842602	     66.48351358	    -10.62088355	     43.09888432	      1.09481976	     86.04229042	      0.00000000	      0.00000000	     56.37411010	     -0.44494780	     52.37001190	      0.56646249	      2.51391158	      0.00000000	      0.00000000
      5.28000000	     47.63350719	     -0.50355756	   -178.26959194	      0.46411806	      0.67827985	     -0.61550111	    101.09940095	    -12.09036155	     -3.23036402	     63.67332597	      1.11130918	     12.98741962	      0.00000000	      0.00000000	     99.96071112	     -8.64798968	     -0.04924072	     61.72063182	      1.07722824	     10.67872696	      0.00000000	      0.00000000	    -27.05544039	      2.45583521	      3.52369924	     66.57414662	    -10.59728504	     42.92883707	      1.08985033	     86.20259169	      0.00000000	      0.00000000	     56.61725536	     -0.35035529	     50.57202978	      0.56946744	      2.50384779	      0.00000000	      0.00000000
      5.28500000	     47.63168074	     -0.15700920	   -178.28145336	      0.46398549	      0.68007576	     -0.61552207	    100.66914771	    -12.10698190	     -3.72776944	     63.17570284	      1.10262402	     12.95454793	      0.00000000	      0.00000000	     99.78122975	     -8.59969697	      0.31629437	     61.31585994	      1.07016364	     10.52788045	      0.00000000	      0.00000000	    -27.20000349	      2.84844787	      3.68415380	     66.63935667	    -10.59907858	     43.28370866	      1.08989508	     85.93551857	      0.00000000	      0.00000000	     56.40401645	     -0.40830186	     52.20503587	      0.56444530	      2.53376054	      0.00000000	      0.00000000
      5.29000000	     47.74898854	     -0.28815465	   -178.34471012	      0.46395164	      0.68185774	     -0.61524611	    100.51855375	    -12.09088909	     -3.73881488	     62.68867866	      1.09412385	     12.64218144	      0.00000000	      0.00000000	     99.55701892	     -8.60574296	      0.13628883	     60.84097433	      1.06187532	     10.32067702	      0.00000000	      0.00000000	    -27.24005078	      2.75835667	      3.64663645	     66.71645656	    -10.57631989	     43.11588009	      1.08546850	     86.08959570	      0.00000000	      0.00000000	     56.47421143	     -0.39727781	     51.86875140	      0.56704468	      2.52955427	      0.00000000	      0.00000000
      5.29500000	     47.82348197	     -0.07638533	   -178.34417345	      0.46384024	      0.68359921	     -0.61515799	    100.18626189	    -12.11904091	     -4.12796574	     62.15654993	      1.08483645	     12.49649735	      0.00000000	      0.00000000	     99.41207969	     -8.53669879	      0.33890298	     60.40015875	      1.05418164	     10.08201376	      0.00000000	      0.00000000	    -27.30729376	      3.02123834	      3.74903308	     66.79147732	    -10.62804280	     42.83008857	      1.08171063	     86.21038015	      0.00000000	      0.00000000	     56.48435250	     -0.35236708	     51.84996552	      0.56734842	      2.48554877	      0.00000000	      0.00000000
      5.30000000	     47.96626278	     -0.00062090	   -178.38983417	      0.46385603	      0.68533527	     -0.61501750	     99.98939790	    -12.16615136	     -4.44838697	     61.65682964	      1.07611468	     12.24020288	      0.00000000	      0.00000000	     99.27465228	     -8.50252322	      0.43764375	     59.91753691	      1.04575830	      9.86162081	      0.00000000	      0.00000000	    -27.30346380	      3.14331672	      3.76274752	     66.86437260	    -10.57550215	     42.77524231	      1.08161980	     86.29054030	      0.00000000	      0.00000000	     56.57860614	     -0.31853567	     51.09386079	      0.57079150	      2.47207700	      0.00000000	      0.00000000
      5.30500000	     47.95877783	     -0.02171881	   -178.46232557	      0.46364501	      0.68718328	     -0.61498296	     99.62292311	    -12.07570353	     -4.55594734	     61.09596986	      1.06632583	     12.14890584	      0.00000000	      0.00000000	     98.95606887	     -8.55380265	      0.34537508	     59.46838401	      1.03791910	      9.72995725	      0.00000000	      0.00000000	    -27.45925597	      3.14484203	      3.81661220	     66.90878454	    -10.58475329	     42.95030920	      1.08601619	     86.14839057	      0.00000000	      0.00000000	     56.46851885	     -0.37933231	     52.20170254	      0.56728365	      2.53224296	      0.00000000	      0.00000000
